<svg width="48" height="49" viewBox="0 0 48 49" fill="none" xmlns="http://www.w3.org/2000/svg">
<rect y="0.5" width="48" height="48" rx="24" fill="#7A00A3" fill-opacity="0.04"/>
<path d="M24.0203 16.5C24.6102 16.5 25.1306 16.9688 25.1306 17.5V18.625C25.1653 18.625 25.2347 18.6562 25.2694 18.6562C25.6511 18.6875 26.7267 18.875 27.1777 18.9688C27.7676 19.0938 28.1492 19.6562 28.0104 20.1875C27.837 20.7188 27.2471 21.0312 26.6573 20.9062C26.3103 20.8125 25.3388 20.6875 24.9571 20.625C23.8468 20.4688 22.8753 20.5625 22.2161 20.7812C21.5915 21 21.314 21.3125 21.2446 21.6562C21.1752 22 21.2446 22.1875 21.314 22.3125C21.3834 22.4375 21.4874 22.5625 21.765 22.7188C22.3202 23.0625 23.1876 23.2812 24.2979 23.5625H24.402C25.3735 23.8125 26.5879 24.125 27.49 24.6562C27.9757 24.9375 28.4268 25.3438 28.7044 25.875C29.0166 26.4375 29.0513 27.0625 28.9473 27.7188C28.7044 28.9062 27.7676 29.7188 26.6573 30.125C26.1715 30.3125 25.6511 30.4062 25.1306 30.4688V31.5C25.1306 32.0625 24.6102 32.5 24.0203 32.5C23.3958 32.5 22.91 32.0625 22.91 31.5V30.4375C22.8753 30.4375 22.8753 30.4062 22.8406 30.4062C22.0079 30.3125 20.62 29.9688 19.6832 29.5938C19.0934 29.375 18.8505 28.7812 19.0934 28.2812C19.3363 27.7812 19.9955 27.5312 20.5506 27.7812C21.2793 28.0625 22.4937 28.3438 23.1876 28.4375C24.2979 28.5938 25.2 28.5 25.8245 28.2812C26.4144 28.0625 26.6573 27.75 26.7614 27.375C26.8307 27.0312 26.7614 26.8438 26.692 26.7188C26.6226 26.5938 26.5185 26.4688 26.2409 26.3125C25.6858 25.9688 24.8183 25.75 23.708 25.4688H23.604C22.6324 25.2188 21.4181 24.9062 20.5159 24.375C20.0302 24.0938 19.5791 23.6875 19.3016 23.1562C18.9893 22.5938 18.9546 21.9688 19.0587 21.2812C19.3363 20.0938 20.3078 19.3125 21.4181 18.9062C21.8691 18.75 22.3896 18.6562 22.91 18.5938V17.5C22.91 16.9688 23.3958 16.5 24.0203 16.5Z" fill="#7A00A3"/>
</svg>
