<svg width="48" height="49" viewBox="0 0 48 49" fill="none" xmlns="http://www.w3.org/2000/svg">
<rect y="0.5" width="48" height="48" rx="24" fill="#7A00A3" fill-opacity="0.04"/>
<path d="M30.645 24.1739C30.4265 24.3883 30.1352 24.4955 29.844 24.4955C29.5163 24.4955 29.225 24.3883 29.0065 24.1739L25.1834 20.4218V31.3565C25.1834 31.9997 24.6372 32.5 24.0182 32.5C23.4356 32.5 22.8531 31.9997 22.8531 31.3565V20.4218L18.9935 24.1739C18.5566 24.6385 17.7919 24.6385 17.355 24.1739C16.8817 23.7451 16.8817 22.9947 17.355 22.5659L23.1808 16.8484C23.6177 16.3839 24.3823 16.3839 24.8192 16.8484L30.645 22.5659C31.1183 22.9947 31.1183 23.7451 30.645 24.1739Z" fill="#7A00A3"/>
</svg>
