<svg width="48" height="49" viewBox="0 0 48 49" fill="none" xmlns="http://www.w3.org/2000/svg">
<rect y="0.5" width="48" height="48" rx="24" fill="#7A00A3" fill-opacity="0.04"/>
<path d="M30.645 26.4508L24.8192 32.1779C24.6008 32.3926 24.3095 32.5 24.0182 32.5C23.6905 32.5 23.3992 32.3926 23.1808 32.1779L17.355 26.4508C16.8817 26.0213 16.8817 25.2696 17.355 24.84C17.7919 24.3747 18.5566 24.3747 18.9935 24.84L22.8531 28.5984V17.6096C22.8531 17.0011 23.3628 16.5 23.9818 16.5C24.5644 16.5 25.1834 17.0011 25.1834 17.6096V28.5984L29.0065 24.84C29.4434 24.3747 30.2081 24.3747 30.645 24.84C31.1183 25.2696 31.1183 26.0213 30.645 26.4508Z" fill="#7A00A3"/>
</svg>
