<svg width="48" height="49" viewBox="0 0 48 49" fill="none" xmlns="http://www.w3.org/2000/svg">
<rect y="0.5" width="48" height="48" rx="24" fill="#7A00A3" fill-opacity="0.04"/>
<path d="M30 17.5C30.5312 17.5 31 17.9688 31 18.5C31 19.0625 30.5312 19.5 30 19.5H18.5C18.2188 19.5 18 19.75 18 20C18 20.2812 18.2188 20.5 18.5 20.5H30C31.0938 20.5 32 21.4062 32 22.5V29.5C32 30.625 31.0938 31.5 30 31.5H18C16.875 31.5 16 30.625 16 29.5V19.5C16 18.4062 16.875 17.5 18 17.5H30ZM29 27C29.5312 27 30 26.5625 30 26C30 25.4688 29.5312 25 29 25C28.4375 25 28 25.4688 28 26C28 26.5625 28.4375 27 29 27Z" fill="#7A00A3"/>
</svg>
